<?xml version="1.0" encoding="UTF-8" standalone="no"?>
<!-- Created with Inkscape (http://www.inkscape.org/) -->

<svg
   version="1.1"
   id="svg1"
   width="548"
   height="115"
   viewBox="0 0 548 115"
   sodipodi:docname="consuelo.svg"
   inkscape:version="1.4.2 (2aeb623e1d, 2025-05-12)"
   xmlns:inkscape="http://www.inkscape.org/namespaces/inkscape"
   xmlns:sodipodi="http://sodipodi.sourceforge.net/DTD/sodipodi-0.dtd"
   xmlns="http://www.w3.org/2000/svg"
   xmlns:svg="http://www.w3.org/2000/svg">
  <defs
     id="defs1">
    <filter
       style="color-interpolation-filters:sRGB;"
       inkscape:label="Invert"
       id="filter2"
       x="0"
       y="0"
       width="1"
       height="1">
      <feColorMatrix
         type="hueRotate"
         values="180"
         result="color1"
         id="feColorMatrix1" />
      <feColorMatrix
         values="1 0 0 0 0 0 1 0 0 0 0 0 1 0 0 -0.21 -0.72 -0.07 2 0 "
         result="fbSourceGraphic"
         id="feColorMatrix2" />
      <feColorMatrix
         result="fbSourceGraphicAlpha"
         in="fbSourceGraphic"
         values="0 0 0 -1 0 0 0 0 -1 0 0 0 0 -1 0 0 0 0 1 0"
         id="feColorMatrix3" />
      <feColorMatrix
         id="feColorMatrix4"
         type="hueRotate"
         values="180"
         result="color1"
         in="fbSourceGraphic" />
      <feColorMatrix
         id="feColorMatrix5"
         values="1 0 0 0 0 0 1 0 0 0 0 0 1 0 0 -0.21 -0.72 -0.07 2 0 "
         result="fbSourceGraphic" />
      <feColorMatrix
         result="fbSourceGraphicAlpha"
         in="fbSourceGraphic"
         values="0 0 0 -1 0 0 0 0 -1 0 0 0 0 -1 0 0 0 0 1 0"
         id="feColorMatrix19" />
      <feColorMatrix
         id="feColorMatrix20"
         type="hueRotate"
         values="180"
         result="color1"
         in="fbSourceGraphic" />
      <feColorMatrix
         id="feColorMatrix21"
         values="0 0 -1 0 1 0 -1 0 0 1 -1 0 0 0 1 -0.21 -0.72 -0.07 2 0 "
         result="fbSourceGraphic" />
      <feColorMatrix
         result="fbSourceGraphicAlpha"
         in="fbSourceGraphic"
         values="0 0 0 -1 0 0 0 0 -1 0 0 0 0 -1 0 0 0 0 1 0"
         id="feColorMatrix22" />
      <feColorMatrix
         id="feColorMatrix23"
         type="hueRotate"
         values="180"
         result="color1"
         in="fbSourceGraphic" />
      <feColorMatrix
         id="feColorMatrix24"
         values="0 0 -1 0 1 0 -1 0 0 1 -1 0 0 0 1 -0.21 -0.72 -0.07 2 0 "
         result="fbSourceGraphic" />
      <feColorMatrix
         result="fbSourceGraphicAlpha"
         in="fbSourceGraphic"
         values="0 0 0 -1 0 0 0 0 -1 0 0 0 0 -1 0 0 0 0 1 0"
         id="feColorMatrix29" />
      <feColorMatrix
         id="feColorMatrix30"
         type="hueRotate"
         values="180"
         result="color1"
         in="fbSourceGraphic" />
      <feColorMatrix
         id="feColorMatrix31"
         values="-1 0 0 0 1 0 -1 0 0 1 0 0 -1 0 1 -0.21 -0.72 -0.07 2 0 "
         result="color2" />
    </filter>
  </defs>
  <sodipodi:namedview
     id="namedview1"
     pagecolor="#ffffff"
     bordercolor="#000000"
     borderopacity="0.25"
     inkscape:showpageshadow="2"
     inkscape:pageopacity="0.0"
     inkscape:pagecheckerboard="0"
     inkscape:deskcolor="#d1d1d1"
     inkscape:zoom="1.5574818"
     inkscape:cx="154.41593"
     inkscape:cy="84.431166"
     inkscape:window-width="1854"
     inkscape:window-height="1011"
     inkscape:window-x="0"
     inkscape:window-y="0"
     inkscape:window-maximized="1"
     inkscape:current-layer="g1" />
  <g
     inkscape:groupmode="layer"
     inkscape:label="Image"
     id="g1">
    <path
       style="fill:#000000;filter:url(#filter2)"
       d="m 321.15904,111.70836 c -1.87089,-7.45421 9.1307,-19.695545 25.62354,-28.511005 5.32162,-2.84441 5.64422,-3.2501 7.76449,-9.76444 1.2167,-3.7382 2.20567,-7.14825 2.1977,-7.57789 -0.008,-0.42964 -3.39606,2.04536 -7.52909,5.5 -16.29245,13.61821 -32.55736,21.78116 -43.39961,21.78116 -6.85723,0 -8.59643,-1.66885 -8.53724,-8.19186 0.14552,-16.03628 23.21981,-45.13219 44.16161,-55.68632 4.85211,-2.44534 11.03846,-2.75823 13.84871,-0.70043 3.85777,2.82484 1.66632,23.18975 -2.40454,22.34519 -1.86968,-0.38789 -1.84766,-0.82524 0.48386,-9.60821 4.76347,-17.94428 -8.91479,-15.60211 -29.38171,5.03113 -13.11025,13.21678 -20.92953,24.94952 -23.11752,34.68756 -3.65319,16.25912 23.83359,8.36796 51.73636,-14.85296 3.32039,-2.76326 6.28178,-5.0241 6.58087,-5.0241 1.07547,0 0.50678,3.90922 -1.52622,10.4913 -1.13851,3.68609 -1.84984,6.92216 -1.58073,7.19127 0.63676,0.63676 16.50633,-6.80685 22.90218,-10.74226 5.34514,-3.28889 7.0063,-3.16538 4.77676,0.35517 -4.11048,6.49063 -5.65965,12.58288 -3.40404,13.38668 0.61827,0.22033 3.67137,-1.92743 6.78465,-4.7728 3.11328,-2.84536 5.88251,-4.95139 6.15384,-4.68006 0.27133,0.27133 0.0275,1.71849 -0.54181,3.21593 -2.8301,7.44373 5.14223,5.34397 14.97918,-3.94523 8.64297,-8.16171 16,-10.93659 16,-6.0348 0,2.26666 -1.618,4.53042 -9.269,12.96833 -3.38472,3.73284 -2.39045,4.1908 4.65308,2.14319 2.98305,-0.8672 7.15448,-1.53021 9.26983,-1.47337 l 3.84609,0.10335 -4,0.99487 c -2.2,0.54717 -7.55007,2.08809 -11.88905,3.42426 -4.33898,1.33617 -8.09256,2.22589 -8.3413,1.97715 -1.06178,-1.06178 1.14728,-4.7287 6.74411,-11.19488 3.28864,-3.79945 5.9809,-7.42847 5.98279,-8.06448 0.007,-2.4068 -4.28644,0.11569 -11.2793,6.62656 -8.45839,7.87538 -10.38685,9.02982 -15.08412,9.02982 -2.64001,0 -3.65681,-0.49924 -4.14416,-2.03474 -0.61679,-1.94336 -0.80104,-1.89845 -4.10218,1 -3.8391,3.37077 -9.03134,4.1246 -10.05397,1.45967 -0.5209,-1.35744 0.46726,-5.68717 2.33674,-10.23867 0.29678,-0.72256 -2.99496,0.44844 -7.31498,2.60222 -4.32002,2.15378 -9.98307,4.71516 -12.58456,5.69195 -4.24008,1.59205 -5.1354,2.51468 -8.6443,8.90808 -8.74243,15.929175 -17.35382,24.611495 -24.41042,24.611495 -3.0592,0 -3.7796,-0.40802 -4.28654,-2.42783 z m 11.18016,-3.08745 c 4.87426,-3.71778 17.39108,-20.875655 17.39108,-23.839435 0,-0.37344 -2.23176,0.45193 -4.95946,1.83417 -5.95571,3.01798 -16.93373,13.05013 -19.50473,17.824185 -3.47699,6.45638 0.78612,8.9764 7.07311,4.18108 z M 8.0557499,90.744565 c -5.2688,-2.40387 -6.65735,-5.55724 -6.11248,-13.88131 0.56083,-8.56795 5.06826,-19.20875 11.6236601,-27.44027 15.99896,-20.08966 49.16267,-28.54647 49.16355,-12.5368 2.2e-4,4.02722 -3.96571,16.25 -5.27265,16.25 -1.93853,0 -1.85048,-3.73766 0.23813,-10.10851 2.12277,-6.47503 2.16095,-7.04928 0.62459,-9.39405 -2.10875,-3.21837 -5.87395,-3.23748 -14.83358,-0.0753 -10.04597,3.54559 -15.44381,7.06337 -23.7567,15.48223 -8.03584,8.1383 -12.3894501,15.60325 -13.9745901,23.96167 -4.08255,21.52719 18.1474401,20.0311 60.1386801,-4.04735 9.86668,-5.65771 14.30559,-6.21928 14.37581,-1.8187 0.0346,2.16717 0.43397,2.45829 3,2.18669 1.62806,-0.17232 5.31579,-1.63482 8.19496,-3.25 2.87917,-1.61518 5.46667,-2.93669 5.75,-2.93669 1.2019,0 0.34186,3.40846 -2.05209,8.13268 -1.41198,2.7864 -2.3464,5.28701 -2.07651,5.55691 0.2699,0.2699 2.90792,-1.33426 5.86225,-3.56481 5.89292,-4.44919 12.33078,-7.52137 13.82551,-6.59758 0.52579,0.32496 0.95598,2.94927 0.95598,5.83182 0,5.21825 1.18674,7.64098 3.74284,7.64098 2.06889,0 10.73656,-8.55311 16.37396,-16.15755 2.78988,-3.76335 5.41356,-6.84245 5.8304,-6.84245 0.41683,0 0.71174,3.35172 0.65534,7.44828 -0.0564,4.09655 0.35472,7.90632 0.9136,8.46614 1.29254,1.29472 11.15976,-1.17447 17.65039,-4.41687 2.56659,-1.28214 4.85768,-2.14001 5.09131,-1.90638 0.23363,0.23364 -0.8538,2.95961 -2.41653,6.05773 -3.58625,7.10979 -3.6717,9.3511 -0.35651,9.3511 1.80346,0 3.51722,-1.3554 6.25,-4.94305 2.07086,-2.71868 4.13027,-4.96868 4.57647,-5 0.4462,-0.0313 0.50761,1.96805 0.13646,4.44305 -0.47102,3.14101 -0.32353,4.5 0.48839,4.5 2.28032,0 7.65881,-3.34084 13.89386,-8.63016 6.45678,-5.47741 9.91017,-6.59279 12.13019,-3.91783 2.73105,3.29069 -2.46335,8.54799 -8.44569,8.54799 -2.26985,0 -2.45518,0.24228 -1.5208,1.98819 1.77518,3.31695 5.45853,3.51452 11.39294,0.61108 5.72959,-2.80322 14.61339,-11.42343 14.61339,-14.17978 0,-3.72103 7.34695,-23.25843 12.63049,-33.58768 5.38034,-10.5185 14.71548,-24.2612096 19.1263,-28.1567596 1.2473,-1.1016 3.19141,-1.69616 4.90478,-1.5 2.71104,0.31037 2.83077,0.54272 2.66777,5.17707 -0.33692,9.5792096 -18.37818,41.6005796 -31.70168,56.2671896 -4.86076,5.35075 -5.67807,6.85788 -6.50758,12 -1.14808,7.11701 0.47184,10.92466 4.18556,9.83815 7.30673,-2.1377 21.66085,-12.5582 24.28266,-17.62821 1.2761,-2.46771 2.04418,-2.89724 4.71797,-2.63841 2.65358,0.25687 3.38877,0.90111 4.34694,3.80916 1.14508,3.4753 1.19224,3.49866 6.68278,3.31044 3.04126,-0.10425 6.88746,-0.89175 8.54713,-1.75 3.33823,-1.72627 5.11688,-1.98546 5.11688,-0.74565 0,1.70024 -7.64151,4.35536 -14.09102,4.89606 -5.75842,0.48276 -6.86225,0.89117 -7.76526,2.87306 -2.59775,5.70145 -11.14372,7.15626 -11.14372,1.89704 0,-1.36452 -0.22063,-2.48095 -0.49028,-2.48095 -0.26966,0 -3.41555,2.00271 -6.99087,4.45047 -6.02843,4.12722 -11.76261,6.53049 -15.61386,6.54395 -3.041,0.0106 -4.90499,-3.39104 -4.90499,-8.95132 v -5.29942 l -3.25,2.67215 c -9.51582,7.82391 -19.08636,9.36816 -22.56889,3.64159 l -1.72349,-2.83405 -2.97882,2.38598 c -1.63834,1.31228 -4.52227,2.89864 -6.40872,3.52524 -3.08393,1.02434 -3.61245,0.91384 -5.23946,-1.09543 l -1.80955,-2.23469 -3.08726,2.59776 c -6.33364,5.32941 -11.15399,2.1679 -8.48889,-5.5676 0.80657,-2.34109 1.37393,-4.33343 1.26078,-4.42741 -0.11314,-0.094 -3.91673,1.01345 -8.45242,2.46095 -4.9505,1.57989 -8.24802,3.17142 -8.25,3.98183 -0.002,0.7425 -1.53329,2.88 -3.40329,4.75 -4.22054,4.22053 -8.25754,4.61264 -9.19117,0.89271 -0.86185,-3.43388 1.70722,-7.04362 6.1586,-8.65325 3.41781,-1.2359 3.58595,-1.50302 3.03637,-4.82391 -0.31998,-1.93355 -0.58674,-4.07805 -0.59279,-4.76555 -0.0216,-2.45768 -1.62559,-1.15911 -6.01732,4.87167 -9.78715,13.43987 -19.99369,14.7414 -19.99369,2.54959 0,-2.86685 -0.44639,-4.67126 -1.1556,-4.67126 -1.42256,0 -6.40271,3.66641 -14.49807,10.67353 -5.2753,4.56616 -9.34632,6.65878 -9.34632,4.80427 0,-0.28721 1.8,-4.10222 4,-8.4778 2.2,-4.37558 4,-8.19974 4,-8.49813 0,-0.29838 -1.75871,0.35471 -3.90824,1.45131 -2.14953,1.09661 -5.63703,2.29019 -7.75,2.65239 -3.38916,0.58098 -4.14092,1.26031 -6.381,5.76621 -4.48649,9.02454 -11.59385,8.61346 -10.7504,-0.62178 0.18837,-2.0625 0.27848,-3.75 0.20024,-3.75 -0.0782,0 -5.72125,2.84857 -12.54002,6.33015 -21.21175,10.83046 -37.62059,14.89374 -45.5451101,11.27823 z M 136.69822,82.014385 c 3.65637,-3.65637 3.31853,-4.65372 -0.9741,-2.87565 -3.11059,1.28844 -5.44766,4.21031 -4.292,5.36596 1.13381,1.13381 2.09789,0.6779 5.2661,-2.49031 z m -62.15209,-4.76436 c 1.20128,-2.13738 2.18415,-4.12663 2.18415,-4.42054 0,-0.29392 -1.40622,-0.84325 -3.12492,-1.22074 -3.64329,-0.8002 -4.83665,0.4548 -4.85977,5.11077 -0.0286,5.7608 2.71969,6.01215 5.80054,0.53051 z m 174.11157,1.2513 c 1.13992,-1.44917 2.07258,-2.95194 2.07258,-3.33949 0,-1.01271 -4.99525,-3.14662 -5.96416,-2.5478 -1.50663,0.93115 -2.14545,5.68514 -0.95645,7.1178 1.64615,1.98349 2.48797,1.76982 4.84803,-1.23051 z m -53.78821,-5.29416 c 1.89134,-1.54543 2.11276,-2.18121 1.1135,-3.19728 -1.00568,-1.0226 -1.76827,-0.87929 -3.93695,0.73986 -1.47932,1.10447 -2.86804,2.54325 -3.08605,3.19728 -0.62595,1.87786 3.30875,1.38523 5.9095,-0.73986 z m 56.86079,-2.37098 c 0,-1.67231 -2.02769,-3.7 -3.7,-3.7 -1.9013,0 -1.58753,2.73315 0.45,3.9199 2.37476,1.38317 3.25,1.32395 3.25,-0.2199 z m -174,-2.14098 c 0,-2.16961 -1.70166,-2.78906 -4.11444,-1.49778 -1.72035,0.92071 -1.87601,1.33091 -0.77066,2.03093 2.15025,1.36178 4.8851,1.0633 4.8851,-0.53315 z m 148.79905,-14.80902 c 8.44174,-11.25257 14.45131,-20.93645 18.79564,-30.28747 3.32431,-7.15547 6.05746,-16.1437096 5.1768,-17.0243696 -2.182,-2.18201 -12.34816,10.2361896 -19.01885,23.2319596 -6.02221,11.73241 -14.07753,33.32988 -12.43123,33.32988 0.29603,0 3.66096,-4.1625 7.47764,-9.25 z m 289.20095,29.21788 c 0,-0.56767 0.65204,-2.59267 1.44897,-4.5 1.63684,-3.91749 0.78407,-4.48785 -2.04162,-1.3655 -2.65766,2.93667 -6.77614,4.89762 -10.28626,4.89762 -2.93165,0 -6.12109,-2.16777 -6.12109,-4.16032 0,-0.55961 -1.38468,0.14766 -3.07707,1.57172 -3.58664,3.01795 -7.63587,4.27566 -9.08859,2.82294 -0.56058,-0.56058 -2.70593,-0.793 -4.76744,-0.51649 -3.1985,0.42901 -4.06106,0.10503 -5.88128,-2.209 -1.17318,-1.49146 -2.4209,-4.24607 -2.7727,-6.12134 -0.35181,-1.87528 -1.06532,-3.67268 -1.58558,-3.99422 -0.52026,-0.32154 -3.58584,1.93343 -6.8124,5.01105 -3.22655,3.07761 -6.48487,5.59566 -7.2407,5.59566 -2.27629,0 -3.77424,-2.21366 -3.77424,-5.57756 0,-5.12036 -2.03988,-5.90057 -6.66582,-2.54956 -2.17978,1.57902 -5.43451,4.72859 -7.23274,6.99903 -3.3671,4.25132 -5.10144,5.17784 -5.10144,2.72532 0,-2.42574 6.76424,-19.01865 7.90863,-19.40011 1.64179,-0.54726 1.3425,0.98617 -1.40505,7.19887 l -2.49643,5.64486 5.15134,-4.0719 c 6.98062,-5.51786 9.94792,-5.24356 11.15357,1.03105 0.47556,2.475 1.27948,4.93208 1.78647,5.46017 0.57805,0.60211 3.0203,-1.1891 6.54893,-4.80317 6.97286,-7.14168 9.97273,-7.43522 11.82393,-1.157 2.7995,9.49431 6.03237,10.90969 10.27846,4.5 4.7487,-7.16841 7.22867,-9.12897 11.13434,-8.80237 3.5807,0.29943 3.61886,0.35067 3.92977,5.27698 0.36467,5.77794 1.49118,7.52539 4.85133,7.52539 2.67968,0 10.64065,-6.89028 14.48685,-12.53848 1.29133,-1.89632 2.91036,-3.45093 3.59786,-3.45469 1.74673,-0.01 1.75072,-0.0263 -2.26204,9.49317 l -1.68613,4 2.84908,-2.59664 c 8.59383,-7.83235 13.34909,-7.94691 13.34909,-0.32157 0,1.33001 0.9375,3.35571 2.08333,4.50154 2.34022,2.34022 1.73311,3.91449 -0.88129,2.28526 -0.93612,-0.58337 -2.18369,-3.0155 -2.77238,-5.40475 -0.58869,-2.38924 -1.61363,-4.52516 -2.27764,-4.7465 -0.664,-0.22134 -4.11609,2.56422 -7.67131,6.19011 -6.18101,6.30391 -8.48071,7.81172 -8.48071,5.56043 z m -21.11276,-6.35299 c 4.20663,-4.28624 5.09148,-7.45679 2.33702,-8.37394 -2.08542,-0.69438 -9.22426,7.15425 -9.22426,10.1414 0,3.75745 1.95813,3.25494 6.88724,-1.76746 z m 3.11276,-15.55773 c 0,-1.49111 4.10707,-8.05716 5.03976,-8.05716 2.12981,0 1.82352,2.27821 -0.73789,5.4884 -2.77515,3.47805 -4.30187,4.3897 -4.30187,2.56876 z"
       id="path1-3" />
  </g>
</svg>
